<?xml version="1.0" encoding="UTF-8" standalone="no"?>
<!-- Created with Inkscape (http://www.inkscape.org/) -->

<svg
   xmlns:dc="http://purl.org/dc/elements/1.1/"
   xmlns:cc="http://creativecommons.org/ns#"
   xmlns:rdf="http://www.w3.org/1999/02/22-rdf-syntax-ns#"
   xmlns:svg="http://www.w3.org/2000/svg"
   xmlns="http://www.w3.org/2000/svg"
   xmlns:sodipodi="http://sodipodi.sourceforge.net/DTD/sodipodi-0.dtd"
   xmlns:inkscape="http://www.inkscape.org/namespaces/inkscape"
   width="1000mm"
   height="1000mm"
   viewBox="0 0 999.99999 999.99999"
   version="1.1"
   id="svg871"
   inkscape:version="0.92.3 (2405546, 2018-03-11)"
   sodipodi:docname="Sosro.svg">
  <defs
     id="defs865" />
  <sodipodi:namedview
     id="base"
     pagecolor="#ffffff"
     bordercolor="#666666"
     borderopacity="1.0"
     inkscape:pageopacity="0.0"
     inkscape:pageshadow="2"
     inkscape:zoom="0.35"
     inkscape:cx="107.5657"
     inkscape:cy="107.5654"
     inkscape:document-units="mm"
     inkscape:current-layer="layer1"
     showgrid="false"
     fit-margin-top="0"
     fit-margin-left="0"
     fit-margin-right="0"
     fit-margin-bottom="0"
     inkscape:window-width="1280"
     inkscape:window-height="738"
     inkscape:window-x="-8"
     inkscape:window-y="-8"
     inkscape:window-maximized="1" />
  <metadata
     id="metadata868">
    <rdf:RDF>
      <cc:Work
         rdf:about="">
        <dc:format>image/svg+xml</dc:format>
        <dc:type
           rdf:resource="http://purl.org/dc/dcmitype/StillImage" />
        <dc:title></dc:title>
      </cc:Work>
    </rdf:RDF>
  </metadata>
  <g
     inkscape:label="Layer 1"
     inkscape:groupmode="layer"
     id="layer1"
     transform="translate(45.46902,822.70663)">
    <g
       id="g1438"
       transform="matrix(17.568455,0,0,17.568455,753.35157,-2937.4783)">
      <path
         style="clip-rule:evenodd;fill:#e62129;fill-rule:evenodd;stroke-width:0.0265486;image-rendering:optimizeQuality;shape-rendering:geometricPrecision;text-rendering:geometricPrecision"
         inkscape:connector-curvature="0"
         id="path69"
         d="m -45.469029,148.83333 c 0,-15.71677 12.743329,-28.4601 28.460099,-28.4601 15.7167739,0 28.460102,12.74333 28.460102,28.4601 0,15.71678 -12.7433281,28.4601 -28.460102,28.4601 -15.71677,0 -28.460099,-12.74332 -28.460099,-28.4601 z"
         class="fil4" />
      <path
         style="clip-rule:evenodd;fill:#fefefe;fill-rule:evenodd;stroke-width:0.0265486;image-rendering:optimizeQuality;shape-rendering:geometricPrecision;text-rendering:geometricPrecision"
         inkscape:connector-curvature="0"
         id="path71"
         d="m -14.566458,141.8776 v 4.27432 c 0,0 -2.920346,-0.69026 -2.920346,0.92921 0,2.17698 3.345124,2.46902 3.345124,6.31856 0,3.8761 -3.690255,5.54866 -6.026532,5.54866 h -2.097339 v -4.03539 c 0,0 1.168138,0.18584 1.805304,0.18584 0.637167,0 1.407076,-0.10619 1.407076,-1.51327 0,-2.04424 -3.398221,-2.38937 -3.398221,-6.15927 0,-3.74336 3.053089,-5.09733 4.566361,-5.38937 1.513268,-0.29203 3.345122,-0.18584 3.345122,-0.18584 z"
         class="fil3" />
      <path
         style="clip-rule:evenodd;fill:#fefefe;fill-rule:evenodd;stroke-width:0.0265486;image-rendering:optimizeQuality;shape-rendering:geometricPrecision;text-rendering:geometricPrecision"
         inkscape:connector-curvature="0"
         id="path73"
         d="m -34.690297,149.84218 v 4.27433 c 0,0 -2.920346,-0.69027 -2.920346,0.9292 0,2.17698 3.345124,2.46902 3.345124,6.31856 0,3.23893 -2.575215,4.93804 -4.805297,5.41592 -0.982298,-1.19469 -1.858402,-2.46902 -2.628312,-3.79645 0.371681,0.0531 0.796458,0.0796 1.115042,0.0796 0.637166,0 1.407075,-0.10619 1.407075,-1.51327 0,-2.04424 -3.39822,-2.38937 -3.39822,-6.15928 0,-3.74335 3.053089,-5.09733 4.566359,-5.38936 1.51327,-0.29204 3.345124,-0.18584 3.345124,-0.18584 z"
         class="fil3" />
      <path
         style="clip-rule:evenodd;fill:#fefefe;fill-rule:evenodd;stroke-width:0.0265486;image-rendering:optimizeQuality;shape-rendering:geometricPrecision;text-rendering:geometricPrecision"
         inkscape:connector-curvature="0"
         id="path75"
         d="m -29.778806,153.90412 c -0.132743,2.04424 0.212389,3.7168 0.796458,3.74335 0.58407,0.0531 1.168139,-1.56637 1.300882,-3.61061 0.132743,-2.04424 -0.212389,-3.71681 -0.796458,-3.74335 -0.584069,-0.0531 -1.168139,1.56636 -1.300882,3.61061 z m -4.35397,-0.31859 c 0.849555,-4.35397 3.98229,-7.43361 6.982282,-6.87608 2.999992,0.58407 4.725651,4.56635 3.849547,8.94687 -0.849555,4.35397 -3.98229,7.43361 -6.982282,6.87609 -2.999992,-0.58407 -4.725651,-4.56636 -3.849547,-8.94688 z"
         class="fil3" />
      <path
         style="clip-rule:evenodd;fill:#fefefe;fill-rule:evenodd;stroke-width:0.0265486;image-rendering:optimizeQuality;shape-rendering:geometricPrecision;text-rendering:geometricPrecision"
         inkscape:connector-curvature="0"
         id="path77"
         d="m 1.4423499,141.74486 c -0.132744,2.04424 0.212389,3.7168 0.796457,3.74335 0.58407,0.0531 1.168138,-1.56637 1.300882,-3.61061 0.132744,-2.04424 -0.212389,-3.7168 -0.796459,-3.74335 -0.584068,-0.0531 -1.168138,1.56636 -1.30088,3.61061 z m -4.35397,-0.31859 c 0.849553,-4.35397 3.982289,-7.43361 6.98228,-6.87608 2.999994,0.58406 4.725652,4.56635 3.849547,8.94687 -0.849553,4.35397 -3.982288,7.43361 -6.98227997,6.87609 -2.99999403,-0.58407 -4.72565103,-4.56636 -3.84954703,-8.94688 z"
         class="fil3" />
      <path
         style="clip-rule:evenodd;fill:#fefefe;fill-rule:evenodd;stroke-width:0.0265486;image-rendering:optimizeQuality;shape-rendering:geometricPrecision;text-rendering:geometricPrecision"
         inkscape:connector-curvature="0"
         id="path79"
         d="m -9.3629321,142.78025 v 3.23893 c 1.035397,-0.39823 1.805305,-1.43362 1.805305,-2.23008 0,-0.87611 -0.477874,-1.30088 -0.982297,-1.30088 -0.292037,0 -0.58407,0.13274 -0.796459,0.26548 z m 3.743354,3.9292 2.814151,5.54865 -3.929192,1.22124 -2.628313,-5.25662 v 6.53095 l -3.9291919,1.22124 0.265486,-15.21235 c 0,0 2.601761,-1.75221 5.4690109,-1.75221 2.86725,0 3.929192,1.51327 3.929192,3.45132 0,2.46902 -1.300879,3.90264 -1.991143,4.24778 z"
         class="fil3" />
    </g>
  </g>
</svg>
